<?xml version="1.0" encoding="utf-8"?>
<!-- Generator: Adobe Illustrator 22.1.0, SVG Export Plug-In . SVG Version: 6.00 Build 0)  -->
<svg version="1.1" id="Hero-User" xmlns="http://www.w3.org/2000/svg" xmlns:xlink="http://www.w3.org/1999/xlink" x="0px" y="0px"
	 viewBox="0 0 1000 800" style="enable-background:new 0 0 1000 800;" xml:space="preserve">
<style type="text/css">
	.st0{fill:#EEBA95;}
	.st1{fill:#F2CEAE;}
	.st2{fill:#00A651;}
	.st3{fill:#FFFFFF;}
	.st4{fill:#ED1C24;}
	.st5{fill:#F2CEAE;stroke:#DAB8A2;stroke-width:0.5;stroke-miterlimit:10;}
	.st6{fill:#CBDB2A;}
	.st7{fill:#0F2F42;}
</style>
<g id="Hero">
	<g>
		<path class="st0" d="M424.9,597.2L424.9,597.2c13.4,15,38.8,15.7,56.4,1.4l97-78.1c17.7-14.2,21.2-38.1,7.8-53.2l0,0
			c-13.4-15-38.8-15.7-56.4-1.4l-97,78.1C415,558.3,411.5,582.2,424.9,597.2z"/>
		<g>
			<path class="st1" d="M747.1,292.1c-3-7.6-6-15.1-9-22.7c-9.2-17.5-31.7-24.8-50-16.1L590,299.6c-18.3,8.6-25.8,30.1-16.6,47.6
				l2.8,5.4c9.2,17.5,31.7,24.8,50,16.1l98.2-46.3c-8.1-10.8-5.7-24.3,2.5-29.8C732.3,288.9,740.2,289,747.1,292.1z"/>
			<g>
				<g>
					<path class="st2" d="M569.7,347.7l2.8,5.4c9,17.6,31.4,25,49.8,16.4l36.5-16.9L621,284.4l-34,15.8
						C568.5,308.7,560.7,330.1,569.7,347.7z"/>
				</g>
				<g>
					<path class="st2" d="M642.1,347.4c-5.9,2.9-11.7,5.9-17.6,8.8"/>
					<g>
						<path class="st3" d="M639.6,343c-5.9,2.9-11.7,5.9-17.6,8.8c-5.8,2.9-0.7,11.5,5,8.6c5.9-2.9,11.7-5.9,17.6-8.8
							C650.4,348.8,645.3,340.2,639.6,343L639.6,343z"/>
					</g>
				</g>
			</g>
		</g>
		<path class="st4" d="M492.9,479l35.3,9.2c37.9,9.9,73.6-18.8,79.3-63.7L622.1,311c5.8-44.9-20.5-89.8-58.3-99.7l-35.3-9.2
			c-37.9-9.9-73.6,18.8-79.3,63.7l-14.6,113.5C428.8,424.2,455,469.1,492.9,479z"/>
		<path class="st4" d="M535,353c-22,10-50,21-71,5c-10.5-7.7-18-17.5-23.1-28.4l-6.4,49.7c-5.8,44.9,20.5,89.8,58.3,99.7l35.3,9.2
			c4,0.8,30.1,5.2,53.3-12.7c24.5-18.9,25.9-47.2,26-51L622.1,311c1.3-10.1,1-20.2-0.8-30C596.9,309.9,569.5,336.1,535,353z"/>
		<path class="st1" d="M342.7,422.5c-4.4-6.9-8.7-13.9-13.1-20.8c-8.7-17.7-0.6-39,17.9-47.3l99.5-44.5c18.6-8.3,40.9-0.6,49.6,17.1
			l2.7,5.5c8.7,17.7,0.6,39-17.9,47.3l-99.5,44.5c-3.9-12.7-16.4-19.3-26.1-16.6C349.4,409.4,344.5,415.3,342.7,422.5z"/>
		<g>
			<g>
				<path class="st2" d="M499.3,332.4l-2.7-5.5c-8.7-17.7-31-25.4-49.6-17.1l-36.7,16.4l36.8,68.7l34.2-15.3
					C500,371.4,508.1,350.1,499.3,332.4z"/>
			</g>
			<g>
				<path class="st2" d="M426.9,331.8c5.9-2.9,11.8-5.7,17.7-8.6"/>
				<g>
					<path class="st3" d="M429.4,336.1c5.9-2.9,11.8-5.7,17.7-8.6c5.8-2.8,0.7-11.4-5-8.6c-5.9,2.9-11.8,5.7-17.7,8.6
						C418.6,330.3,423.6,338.9,429.4,336.1L429.4,336.1z"/>
				</g>
			</g>
		</g>
		<path class="st1" d="M432.2,449.5L432.2,449.5c-0.4,19.9,14.2,36.5,32.6,36.9l100.7,2c18.3,0.4,33.7-15.6,34.1-35.5v0
			c0.4-19.9-14.2-36.5-32.6-36.9l-100.7-2C447.9,413.6,432.6,429.6,432.2,449.5z"/>
		<path class="st5" d="M467.3,531.6L467.3,531.6c13.1,14.8,35.2,17.8,49.1,6.6l76.1-61.5c13.9-11.2,14.5-32.5,1.3-47.3l0,0
			c-13.1-14.8-35.2-17.8-49.1-6.6l-76.1,61.5C454.8,495.5,454.2,516.8,467.3,531.6z"/>
		<polygon class="st6" points="601.7,316.2 595.6,335.7 608.1,352 587.9,352.1 576.6,369 570.2,349.5 550.8,343.7 567,331.6 
			566.3,311 582.7,323.1 		"/>
		<polygon class="st6" points="542.9,356.4 546.7,367.4 557.9,370.1 548.5,377.6 548.9,389.3 539.4,383 528.3,387.5 531.9,376.1 
			524.6,367.2 536.4,366.5 		"/>
		<polygon class="st6" points="505.9,374.2 509.2,382.1 517.4,384.7 511.2,389.3 512.3,397.6 505.1,392.5 497.5,395 499.3,387.2 
			493.6,380.5 501.9,380.8 		"/>
		<path class="st7" d="M481.1,261.5l89.8-35.4c10.7-4.2,23.1,1.9,27.5,13.6v0c4.4,11.7-0.8,24.7-11.6,29L497,304
			c-10.7,4.2-23.1-1.9-27.5-13.6v0C465.2,278.7,470.4,265.7,481.1,261.5z"/>
		<g>
			<g>
				<g>
					<path class="st3" d="M515.5,267.6c-0.2,0.1-0.4,0.2-0.6,0.2c-1.2,0.5-2.3,1.1-3,2.3c-0.6,1.1-0.9,2.7-0.5,3.9
						c0.4,1.2,1.1,2.4,2.3,3c1.1,0.6,2.6,1,3.9,0.5c0.2-0.1,0.4-0.2,0.6-0.2c1.2-0.5,2.3-1.1,3-2.3c0.6-1.1,0.9-2.7,0.5-3.9
						c-0.4-1.2-1.1-2.4-2.3-3C518.2,267.5,516.8,267.1,515.5,267.6L515.5,267.6z"/>
				</g>
			</g>
			<g>
				<g>
					<path class="st3" d="M560.5,246.9c-0.1,0-0.3,0.1-0.4,0.1c-6,2.2-3.4,11.9,2.7,9.6c0.1,0,0.3-0.1,0.4-0.1
						C569.1,254.3,566.5,244.6,560.5,246.9c-0.1,0-0.3,0.1-0.4,0.1c-6,2.2-3.4,11.9,2.7,9.6c0.1,0,0.3-0.1,0.4-0.1
						C569.1,254.3,566.5,244.6,560.5,246.9L560.5,246.9z"/>
				</g>
			</g>
		</g>
	</g>
</g>
</svg>
